<?xml version="1.0" encoding="UTF-8" standalone="no"?>
<!DOCTYPE svg PUBLIC "-//W3C//DTD SVG 1.1//EN" "http://www.w3.org/Graphics/SVG/1.1/DTD/svg11.dtd">
<svg width="100%" height="100%" viewBox="0 0 5 5" version="1.1" xmlns="http://www.w3.org/2000/svg" xmlns:xlink="http://www.w3.org/1999/xlink" xml:space="preserve" style="fill-rule:evenodd;clip-rule:evenodd;stroke-linejoin:round;stroke-miterlimit:1.41421;">
    <g transform="matrix(1,0,0,1,-0.286417,-0.0995619)">
        <path d="M1.651,3.075C1.568,3.098 1.492,3.14 1.427,3.196C1.347,3.286 1.254,3.365 1.171,3.453C1.053,3.579 0.941,3.711 0.824,3.839C0.764,3.905 0.703,3.97 0.639,4.032C0.626,4.045 0.598,4.043 0.577,4.048C0.579,4.025 0.572,3.992 0.584,3.98C0.74,3.823 0.901,3.672 1.057,3.514C1.151,3.42 1.237,3.317 1.323,3.213C1.192,3.234 1.054,3.219 0.949,3.321C0.92,3.35 0.886,3.366 0.85,3.337C0.83,3.323 0.818,3.301 0.818,3.276C0.818,3.261 0.823,3.245 0.832,3.233L0.832,3.222C0.817,3.207 0.797,3.199 0.776,3.199C0.751,3.199 0.729,3.21 0.713,3.228C0.662,3.28 0.609,3.33 0.553,3.376C0.527,3.397 0.494,3.407 0.46,3.401C0.436,3.391 0.426,3.347 0.41,3.317L0.422,3.305C0.412,3.307 0.403,3.31 0.393,3.314C0.354,3.335 0.318,3.337 0.293,3.292C0.289,3.282 0.286,3.27 0.286,3.259C0.286,3.226 0.306,3.197 0.337,3.185C0.384,3.164 0.435,3.15 0.484,3.133C0.699,3.059 0.914,2.988 1.127,2.908C1.217,2.87 1.304,2.822 1.385,2.767C1.325,2.721 1.279,2.669 1.198,2.675C1.045,2.685 0.892,2.68 0.74,2.695C0.646,2.708 0.558,2.748 0.486,2.809C0.443,2.837 0.393,2.851 0.342,2.851C0.311,2.851 0.307,2.817 0.323,2.781C0.385,2.646 0.515,2.619 0.637,2.582C0.753,2.546 0.872,2.515 1.002,2.479C0.969,2.45 0.943,2.43 0.92,2.407C0.888,2.376 0.858,2.343 0.826,2.312C0.817,2.299 0.803,2.291 0.787,2.291C0.772,2.291 0.759,2.298 0.749,2.309C0.691,2.363 0.632,2.415 0.57,2.465C0.557,2.473 0.541,2.475 0.527,2.469C0.517,2.458 0.508,2.43 0.515,2.422C0.558,2.365 0.605,2.31 0.652,2.256C0.668,2.244 0.685,2.233 0.703,2.224C0.663,2.197 0.631,2.177 0.6,2.155C0.53,2.107 0.457,2.06 0.39,2.008C0.368,1.994 0.355,1.97 0.355,1.945C0.355,1.928 0.36,1.912 0.371,1.899C0.384,1.877 0.408,1.863 0.433,1.863C0.448,1.863 0.462,1.868 0.474,1.876C0.49,1.887 0.503,1.903 0.509,1.922C0.554,2.027 0.628,2.117 0.722,2.182C0.737,2.191 0.755,2.192 0.772,2.187C0.873,2.147 0.972,2.105 1.087,2.058C1.012,2.027 0.938,1.991 0.867,1.952C0.783,1.903 0.683,1.887 0.588,1.908C0.584,1.908 0.579,1.909 0.575,1.909C0.532,1.909 0.497,1.874 0.497,1.831C0.497,1.826 0.498,1.82 0.499,1.815C0.507,1.784 0.496,1.751 0.47,1.732C0.439,1.702 0.418,1.67 0.443,1.628C0.456,1.603 0.482,1.588 0.51,1.588C0.526,1.588 0.542,1.593 0.554,1.602C0.578,1.608 0.6,1.617 0.62,1.63C0.639,1.646 0.649,1.669 0.65,1.693C0.64,1.742 0.663,1.763 0.704,1.762C0.907,1.773 1.106,1.823 1.29,1.91C1.369,1.94 1.415,1.903 1.482,1.863C1.358,1.785 1.223,1.727 1.082,1.69C1.065,1.69 1.049,1.683 1.037,1.671C1.021,1.652 1.013,1.628 1.014,1.604C1.025,1.585 1.045,1.573 1.067,1.572C1.147,1.592 1.226,1.62 1.305,1.645C1.319,1.652 1.335,1.655 1.35,1.654C1.293,1.568 1.239,1.48 1.177,1.398C1.12,1.32 1.056,1.247 0.986,1.18C0.937,1.143 0.883,1.115 0.824,1.096C0.754,1.067 0.732,1.039 0.749,0.982C0.761,0.938 0.798,0.928 0.871,0.948L0.886,0.945C0.879,0.898 0.868,0.846 0.951,0.827C0.918,0.801 0.895,0.785 0.875,0.765C0.857,0.749 0.843,0.729 0.833,0.707C0.83,0.699 0.853,0.67 0.857,0.671C0.881,0.676 0.904,0.688 0.922,0.705C1.004,0.813 1.082,0.924 1.162,1.034C1.289,1.207 1.415,1.379 1.542,1.552C1.586,1.612 1.635,1.669 1.678,1.73C1.697,1.758 1.715,1.766 1.746,1.751C1.807,1.722 1.868,1.697 1.936,1.667C1.851,1.578 1.77,1.494 1.689,1.41C1.59,1.306 1.49,1.203 1.394,1.097C1.327,1.023 1.263,0.946 1.204,0.866C1.163,0.812 1.172,0.779 1.229,0.729C1.179,0.659 1.117,0.6 1.046,0.555C1.041,0.551 1.031,0.556 1.024,0.553C1.007,0.548 0.989,0.541 0.972,0.534C0.98,0.515 0.984,0.488 0.999,0.479C1.018,0.47 1.04,0.471 1.057,0.482C1.11,0.532 1.158,0.586 1.206,0.641C1.372,0.83 1.54,1.017 1.701,1.211C1.74,1.258 1.783,1.236 1.829,1.253C1.793,1.108 1.76,0.968 1.724,0.828C1.709,0.787 1.721,0.741 1.753,0.711C1.771,0.691 1.783,0.665 1.786,0.637C1.792,0.579 1.79,0.519 1.793,0.46C1.792,0.445 1.797,0.43 1.805,0.418C1.853,0.372 1.837,0.317 1.836,0.263C1.836,0.229 1.842,0.196 1.853,0.165C1.859,0.15 1.886,0.131 1.897,0.134C1.916,0.143 1.931,0.158 1.938,0.178C1.943,0.198 1.943,0.218 1.94,0.239C1.943,0.44 1.97,0.64 2.022,0.835C2.036,0.935 2.058,1.033 2.087,1.129C2.126,1.247 2.181,1.359 2.229,1.473L2.245,1.468C2.235,1.402 2.223,1.336 2.215,1.27C2.194,1.102 2.176,0.933 2.154,0.765C2.15,0.729 2.127,0.695 2.123,0.659C2.12,0.627 2.126,0.595 2.14,0.567C2.158,0.554 2.183,0.552 2.203,0.561C2.226,0.584 2.241,0.613 2.244,0.645C2.243,0.734 2.23,0.823 2.229,0.912C2.227,0.981 2.231,1.05 2.241,1.118C2.259,1.237 2.285,1.355 2.308,1.474C2.383,1.461 2.393,1.453 2.388,1.384C2.374,1.204 2.352,1.025 2.345,0.844C2.349,0.758 2.359,0.672 2.376,0.587C2.381,0.549 2.385,0.51 2.386,0.471C2.391,0.371 2.392,0.27 2.398,0.17C2.399,0.148 2.408,0.127 2.422,0.111C2.438,0.099 2.458,0.096 2.476,0.103C2.491,0.115 2.5,0.133 2.5,0.152C2.49,0.248 2.472,0.343 2.466,0.439C2.461,0.545 2.461,0.652 2.467,0.759C2.474,0.79 2.492,0.816 2.518,0.834C2.593,0.895 2.653,0.972 2.695,1.06C2.715,1.098 2.734,1.137 2.754,1.176L2.768,1.172C2.784,1.065 2.795,0.956 2.815,0.85C2.853,0.656 2.895,0.463 2.939,0.271C2.942,0.255 2.969,0.244 2.985,0.23C2.992,0.25 2.996,0.271 2.996,0.292C2.94,0.509 2.879,0.723 2.827,0.94C2.81,1.03 2.798,1.121 2.791,1.212C2.791,1.22 2.792,1.228 2.795,1.236L2.811,1.24C2.839,1.175 2.863,1.108 2.883,1.04C2.913,0.919 2.934,0.796 2.959,0.674C2.962,0.66 2.965,0.645 2.969,0.631C2.989,0.56 3.019,0.549 3.089,0.594C3.097,0.584 3.103,0.565 3.115,0.561C3.141,0.553 3.182,0.54 3.193,0.552C3.211,0.575 3.217,0.606 3.208,0.634C3.183,0.682 3.153,0.727 3.118,0.768C3.023,0.905 2.947,1.054 2.891,1.211L2.901,1.223C2.927,1.212 2.954,1.202 2.98,1.19C3.021,1.165 3.065,1.144 3.111,1.126C3.226,1.089 3.311,0.988 3.33,0.868C3.357,0.779 3.369,0.687 3.392,0.597C3.398,0.576 3.42,0.559 3.434,0.54C3.445,0.56 3.467,0.582 3.465,0.601C3.456,0.656 3.444,0.71 3.427,0.764C3.42,0.791 3.417,0.811 3.449,0.828C3.499,0.855 3.496,0.903 3.474,0.965C3.539,0.935 3.59,0.911 3.642,0.888C3.769,0.831 3.897,0.775 4.023,0.717C4.069,0.696 4.113,0.67 4.157,0.647C4.174,0.639 4.191,0.621 4.206,0.623C4.234,0.627 4.272,0.636 4.284,0.655C4.303,0.687 4.285,0.721 4.247,0.735C4.219,0.746 4.19,0.753 4.162,0.761C3.977,0.817 3.791,0.87 3.606,0.928C3.432,0.992 3.287,1.116 3.195,1.277C3.104,1.417 3.022,1.562 2.949,1.713C2.969,1.701 2.99,1.692 3.009,1.679C3.118,1.607 3.222,1.528 3.335,1.463C3.456,1.386 3.563,1.288 3.652,1.176C3.713,1.106 3.779,1.04 3.843,0.973C3.855,0.956 3.874,0.947 3.895,0.947C3.913,0.947 3.93,0.954 3.942,0.967C3.952,0.973 3.964,0.977 3.975,0.979C3.996,0.987 4.033,0.995 4.033,1.003C4.035,1.031 4.026,1.058 4.009,1.08C3.964,1.113 3.917,1.143 3.868,1.171C3.837,1.191 3.798,1.206 3.808,1.258C3.81,1.27 3.79,1.289 3.776,1.3C3.747,1.319 3.72,1.34 3.696,1.365C3.743,1.353 3.79,1.343 3.836,1.329C3.898,1.311 3.96,1.289 4.022,1.268C4.054,1.257 4.087,1.254 4.092,1.294C4.088,1.318 4.072,1.339 4.049,1.349C3.891,1.392 3.733,1.434 3.573,1.467C3.458,1.488 3.355,1.551 3.284,1.644C3.172,1.795 3.063,1.948 2.952,2.101L2.947,2.127C3.01,2.086 3.068,2.054 3.121,2.015C3.328,1.862 3.534,1.709 3.739,1.554C3.765,1.531 3.789,1.505 3.81,1.476C3.83,1.443 3.873,1.432 3.907,1.449C3.928,1.457 3.952,1.456 3.972,1.446C4.016,1.418 4.054,1.381 4.098,1.355C4.125,1.338 4.157,1.331 4.188,1.334C4.21,1.346 4.224,1.368 4.225,1.393C4.219,1.424 4.201,1.452 4.174,1.47C3.897,1.621 3.631,1.792 3.378,1.982L3.361,1.997L3.356,2.016C3.46,1.985 3.562,1.962 3.658,1.924C3.846,1.848 4.031,1.765 4.218,1.685C4.259,1.663 4.301,1.645 4.345,1.629C4.37,1.624 4.397,1.629 4.417,1.646C4.428,1.667 4.427,1.693 4.414,1.713C4.389,1.74 4.358,1.761 4.323,1.772C4.143,1.826 3.961,1.874 3.78,1.927C3.634,1.97 3.49,2.02 3.343,2.062C3.256,2.078 3.178,2.124 3.122,2.191C3.162,2.188 3.194,2.189 3.226,2.183C3.522,2.13 3.819,2.078 4.116,2.021C4.205,2.004 4.292,1.976 4.38,1.952C4.395,1.945 4.409,1.936 4.422,1.925C4.396,1.927 4.37,1.924 4.345,1.917C4.324,1.905 4.297,1.883 4.295,1.863C4.291,1.828 4.319,1.813 4.355,1.816C4.431,1.822 4.508,1.827 4.584,1.834C4.6,1.836 4.617,1.84 4.633,1.846C4.669,1.858 4.702,1.883 4.694,1.921C4.685,1.954 4.664,1.982 4.634,1.999C4.568,2.03 4.5,2.054 4.43,2.073C4.402,2.074 4.375,2.069 4.349,2.059C4.331,2.052 4.312,2.047 4.292,2.044C4.084,2.053 3.877,2.09 3.679,2.155C3.675,2.156 3.671,2.161 3.658,2.171L3.921,2.159L3.955,2.156C3.993,2.153 4.035,2.161 4.04,2.2C4.04,2.234 4.026,2.266 4.002,2.29C3.974,2.317 3.942,2.308 3.903,2.286C3.852,2.264 3.798,2.253 3.743,2.251C3.658,2.242 3.573,2.238 3.487,2.232C3.358,2.23 3.23,2.267 3.122,2.339C3.252,2.434 3.402,2.497 3.56,2.522C3.586,2.521 3.612,2.515 3.635,2.505C3.883,2.435 4.13,2.367 4.377,2.295C4.408,2.285 4.438,2.268 4.463,2.247C4.49,2.219 4.532,2.212 4.567,2.228C4.588,2.24 4.619,2.269 4.616,2.282C4.608,2.311 4.588,2.335 4.561,2.347C4.5,2.363 4.436,2.362 4.374,2.374C4.204,2.407 4.034,2.439 3.865,2.477C3.798,2.494 3.733,2.521 3.673,2.556L3.908,2.647C3.929,2.653 3.95,2.662 3.97,2.672C4.022,2.701 4.025,2.736 3.984,2.779C3.967,2.792 3.957,2.812 3.957,2.834C3.957,2.857 3.969,2.879 3.988,2.891C4.032,2.919 4.077,2.944 4.125,2.965C4.181,2.993 4.242,3.015 4.296,3.046C4.395,3.103 4.394,3.152 4.298,3.212C4.326,3.248 4.354,3.284 4.383,3.32C4.479,3.438 4.575,3.556 4.67,3.675C4.685,3.692 4.698,3.71 4.707,3.73C4.725,3.766 4.71,3.809 4.675,3.827C4.665,3.832 4.655,3.835 4.644,3.835C4.618,3.835 4.594,3.819 4.585,3.795C4.568,3.752 4.549,3.71 4.527,3.668C4.465,3.574 4.397,3.483 4.332,3.39C4.297,3.341 4.263,3.293 4.229,3.243C4.206,3.21 4.187,3.174 4.133,3.187C4.12,3.19 4.099,3.169 4.086,3.156C4.055,3.119 4.022,3.085 3.986,3.054C3.909,2.998 3.824,2.954 3.749,2.897C3.623,2.816 3.48,2.766 3.332,2.75C3.29,2.742 3.248,2.734 3.207,2.726L3.198,2.738C3.231,2.773 3.267,2.807 3.305,2.837C3.599,3.044 3.865,3.29 4.095,3.567C4.149,3.632 4.203,3.695 4.257,3.76C4.27,3.778 4.283,3.798 4.295,3.817L4.279,3.832C4.264,3.82 4.251,3.808 4.238,3.795C4.148,3.69 4.059,3.585 3.969,3.481C3.959,3.468 3.946,3.458 3.929,3.443C3.908,3.536 3.837,3.488 3.769,3.503C3.866,3.576 3.951,3.64 4.037,3.704C4.051,3.712 4.064,3.723 4.074,3.736C4.083,3.749 4.085,3.766 4.08,3.781C4.073,3.792 4.054,3.798 4.039,3.803C4.02,3.81 4,3.814 3.98,3.819C3.965,3.826 3.949,3.829 3.932,3.829C3.879,3.821 3.826,3.811 3.774,3.798C3.757,3.794 3.742,3.783 3.733,3.768C3.717,3.74 3.706,3.71 3.701,3.679C3.69,3.578 3.622,3.54 3.536,3.518C3.52,3.514 3.504,3.509 3.488,3.502C3.464,3.495 3.447,3.473 3.447,3.447C3.447,3.434 3.452,3.42 3.462,3.41C3.485,3.38 3.482,3.361 3.457,3.34C3.358,3.259 3.259,3.177 3.159,3.098C3.095,3.048 3.027,3.003 2.955,2.964C2.965,2.997 2.974,3.029 2.984,3.061C3.032,3.203 3.079,3.344 3.13,3.484C3.14,3.513 3.16,3.538 3.186,3.554C3.287,3.613 3.397,3.659 3.494,3.723C3.591,3.789 3.682,3.863 3.767,3.944C3.816,3.99 3.801,4.027 3.739,4.053C3.725,4.058 3.712,4.064 3.7,4.073C3.634,4.127 3.6,4.123 3.547,4.057C3.496,3.994 3.441,3.933 3.386,3.872C3.372,3.856 3.354,3.842 3.323,3.815C3.323,3.839 3.325,3.862 3.329,3.885C3.351,3.951 3.396,4.008 3.457,4.043C3.483,4.056 3.506,4.076 3.523,4.1C3.535,4.122 3.536,4.149 3.525,4.172C3.514,4.181 3.507,4.195 3.507,4.209C3.507,4.22 3.511,4.232 3.519,4.24C3.58,4.331 3.641,4.422 3.704,4.512C3.721,4.537 3.745,4.563 3.717,4.591C3.686,4.622 3.658,4.595 3.635,4.575C3.552,4.491 3.49,4.389 3.455,4.276C3.415,4.159 3.34,4.056 3.242,3.981C3.231,4.041 3.243,4.102 3.277,4.153C3.306,4.191 3.338,4.23 3.306,4.284C3.295,4.308 3.271,4.323 3.245,4.323C3.218,4.323 3.193,4.306 3.183,4.28C3.168,4.239 3.162,4.195 3.166,4.151C3.193,4.013 3.154,3.87 3.062,3.764C2.942,3.641 2.826,3.515 2.706,3.388C2.704,3.393 2.699,3.4 2.7,3.405C2.74,3.588 2.777,3.773 2.823,3.955C2.86,4.064 2.933,4.157 3.03,4.218C3.126,4.292 3.224,4.364 3.317,4.441C3.333,4.461 3.338,4.487 3.33,4.512C3.314,4.541 3.281,4.542 3.253,4.52C3.242,4.512 3.232,4.504 3.222,4.495C3.137,4.412 3.053,4.328 2.968,4.245C2.958,4.234 2.945,4.228 2.93,4.227C2.95,4.267 2.97,4.305 2.988,4.345C2.996,4.359 3.001,4.375 3.001,4.392C3.001,4.429 2.978,4.462 2.944,4.475C2.936,4.478 2.928,4.479 2.92,4.479C2.881,4.479 2.848,4.447 2.847,4.408C2.837,4.301 2.815,4.195 2.78,4.093C2.728,3.99 2.666,3.893 2.594,3.803C2.589,3.795 2.564,3.796 2.551,3.8C2.484,3.824 2.443,3.798 2.437,3.726C2.434,3.695 2.43,3.663 2.426,3.632C2.423,3.623 2.419,3.613 2.414,3.605C2.409,3.623 2.405,3.642 2.403,3.661C2.401,3.857 2.401,4.052 2.398,4.247C2.396,4.305 2.391,4.362 2.381,4.419C2.376,4.457 2.343,4.487 2.311,4.473C2.278,4.456 2.253,4.425 2.245,4.389C2.241,4.343 2.281,4.364 2.316,4.378L2.395,3.595L2.38,3.591C2.362,3.63 2.347,3.671 2.334,3.712C2.272,3.921 2.183,4.121 2.068,4.307C2.051,4.365 2.044,4.426 2.048,4.486C2.037,4.592 2.027,4.697 2.014,4.802C2.01,4.828 1.999,4.852 1.981,4.872C1.953,4.903 1.909,4.915 1.885,4.877C1.87,4.839 1.861,4.797 1.86,4.755L1.951,4.748C1.962,4.711 1.971,4.673 1.977,4.635C1.986,4.567 1.992,4.499 1.994,4.43C1.992,4.388 1.988,4.346 1.981,4.305C1.979,4.292 1.971,4.274 1.977,4.268C2.039,4.195 2.013,4.104 2.026,4.022C2.05,3.872 2.069,3.72 2.092,3.556C2.038,3.654 1.983,3.74 1.941,3.832C1.865,3.997 1.792,4.164 1.726,4.334C1.708,4.398 1.697,4.464 1.696,4.531C1.694,4.577 1.659,4.616 1.613,4.621C1.573,4.615 1.544,4.58 1.544,4.54C1.544,4.536 1.544,4.532 1.545,4.528C1.552,4.487 1.565,4.449 1.584,4.413C1.649,4.283 1.716,4.154 1.785,4.027C1.892,3.827 2.004,3.629 2.11,3.429C2.153,3.347 2.184,3.26 2.222,3.173L2.134,3.131C2.111,3.174 2.091,3.218 2.073,3.262C2.033,3.382 1.996,3.503 1.957,3.623C1.953,3.636 1.953,3.652 1.945,3.66C1.928,3.673 1.91,3.685 1.89,3.694C1.881,3.676 1.861,3.655 1.865,3.64C1.894,3.537 1.926,3.434 1.962,3.333C1.982,3.277 2.014,3.226 2.033,3.161C1.994,3.182 1.953,3.2 1.912,3.217C1.835,3.247 1.774,3.308 1.743,3.384C1.662,3.537 1.602,3.701 1.565,3.87C1.558,3.907 1.543,3.947 1.493,3.938C1.459,3.932 1.433,3.902 1.433,3.867C1.433,3.861 1.433,3.855 1.435,3.85C1.439,3.806 1.45,3.762 1.459,3.719C1.463,3.707 1.463,3.695 1.458,3.684C1.417,3.745 1.374,3.805 1.335,3.867C1.303,3.919 1.279,3.977 1.245,4.027C1.222,4.053 1.197,4.075 1.169,4.094C1.156,4.105 1.143,4.118 1.132,4.131C1.117,4.159 1.099,4.185 1.08,4.209C1.063,4.221 1.041,4.222 1.022,4.214C1.01,4.204 1.009,4.175 1.01,4.155C1.013,4.142 1.021,4.131 1.033,4.124C1.106,4.064 1.164,3.986 1.201,3.898C1.25,3.809 1.301,3.72 1.35,3.631C1.357,3.614 1.363,3.598 1.368,3.581L1.354,3.571C1.294,3.638 1.232,3.704 1.175,3.774C1.13,3.83 1.091,3.892 1.049,3.951C1.042,3.96 1.035,3.972 1.026,3.974C1.001,3.977 0.975,3.979 0.95,3.98C0.951,3.956 0.943,3.926 0.955,3.909C1.052,3.766 1.174,3.639 1.313,3.536C1.424,3.469 1.509,3.369 1.558,3.25C1.585,3.19 1.616,3.131 1.651,3.075L1.651,3.075ZM2.072,3.962L2.097,3.97C2.146,3.894 2.19,3.815 2.228,3.733C2.283,3.589 2.322,3.44 2.371,3.294C2.382,3.258 2.383,3.235 2.343,3.219C2.303,3.202 2.287,3.217 2.264,3.25C2.183,3.394 2.13,3.553 2.111,3.718C2.094,3.799 2.085,3.881 2.072,3.962L2.072,3.962ZM2.461,0.925L2.461,1.411L2.748,1.287C2.696,1.137 2.595,1.01 2.461,0.925L2.461,0.925ZM1.662,2.905C1.599,2.846 1.507,2.829 1.427,2.861C1.271,2.915 1.12,2.984 0.976,3.065C0.947,3.084 0.916,3.098 0.886,3.114L0.891,3.134C0.963,3.134 1.036,3.127 1.107,3.114C1.245,3.076 1.38,3.026 1.515,2.978C1.565,2.957 1.614,2.932 1.662,2.905L1.662,2.905ZM1.562,2.289L1.552,2.271C1.419,2.209 1.286,2.148 1.152,2.088C1.141,2.082 1.128,2.08 1.115,2.083C1.039,2.123 0.963,2.164 0.89,2.204C0.925,2.271 1.008,2.3 1.078,2.269C1.111,2.263 1.145,2.262 1.178,2.266C1.304,2.272 1.429,2.281 1.562,2.289L1.562,2.289ZM1.723,1.798C1.859,1.912 2.014,2 2.182,2.058C2.154,1.983 2.121,1.91 2.083,1.84C2.056,1.796 2.025,1.754 1.991,1.715C1.981,1.703 1.966,1.696 1.95,1.697C1.878,1.727 1.807,1.76 1.723,1.798L1.723,1.798ZM3.192,1.122C3.091,1.167 2.992,1.209 2.895,1.254C2.883,1.26 2.876,1.28 2.87,1.295C2.826,1.395 2.876,1.488 2.884,1.592C3.015,1.456 3.119,1.297 3.192,1.122L3.192,1.122ZM1.878,2.442L1.873,2.427L1.228,2.513L1.224,2.534C1.288,2.568 1.356,2.596 1.425,2.618C1.487,2.635 1.551,2.633 1.611,2.612C1.704,2.562 1.794,2.505 1.878,2.442L1.878,2.442ZM1.843,0.884L1.831,0.886C1.831,0.905 1.833,0.924 1.837,0.942C1.856,1.012 1.877,1.081 1.897,1.15C1.924,1.249 1.946,1.349 1.978,1.446C1.997,1.494 2.023,1.538 2.056,1.578C2.072,1.588 2.093,1.59 2.111,1.582C2.127,1.571 2.137,1.553 2.136,1.534C2.122,1.474 2.102,1.416 2.078,1.36C2.011,1.217 1.94,1.076 1.871,0.935C1.862,0.917 1.852,0.901 1.843,0.884ZM2.719,1.466C2.701,1.495 2.683,1.525 2.665,1.555C2.598,1.662 2.532,1.769 2.464,1.876C2.455,1.886 2.449,1.899 2.449,1.913C2.449,1.935 2.463,1.955 2.484,1.963C2.551,1.983 2.624,1.951 2.654,1.888C2.705,1.753 2.726,1.609 2.719,1.466ZM2.92,3.431L2.933,3.413C2.931,3.405 2.929,3.398 2.926,3.391C2.84,3.237 2.753,3.083 2.665,2.93C2.659,2.92 2.63,2.91 2.623,2.915C2.609,2.926 2.6,2.943 2.6,2.96C2.618,3.048 2.638,3.135 2.661,3.221C2.665,3.243 2.676,3.263 2.692,3.278C2.766,3.331 2.844,3.38 2.92,3.431L2.92,3.431ZM2.744,1.341L2.732,1.329C2.646,1.37 2.559,1.411 2.474,1.454C2.466,1.461 2.461,1.471 2.461,1.482C2.46,1.599 2.46,1.717 2.46,1.843L2.744,1.341ZM3.568,3.289L3.582,3.275C3.487,3.154 3.391,3.033 3.296,2.913C3.246,2.845 3.182,2.789 3.108,2.749C3.078,2.729 3.037,2.735 3.013,2.762C3.188,2.948 3.373,3.124 3.568,3.289L3.568,3.289ZM1.601,1.919C1.67,2.077 1.923,2.248 2.029,2.209C1.939,2.051 1.78,1.944 1.601,1.919L1.601,1.919ZM1.229,1.365L1.217,1.376C1.277,1.469 1.335,1.563 1.399,1.655C1.458,1.74 1.56,1.747 1.646,1.785C1.527,1.626 1.387,1.485 1.229,1.365L1.229,1.365ZM2.909,2.432C2.946,2.459 2.984,2.484 3.024,2.506C3.094,2.54 3.171,2.561 3.239,2.598C3.308,2.636 3.36,2.606 3.419,2.576C3.266,2.48 3.089,2.43 2.909,2.432L2.909,2.432ZM1.192,2.05L1.202,2.062C1.34,2.125 1.478,2.186 1.614,2.252C1.662,2.275 1.717,2.274 1.765,2.251C1.75,2.241 1.734,2.231 1.718,2.223C1.581,2.159 1.444,2.097 1.307,2.033C1.27,2.012 1.222,2.019 1.192,2.05ZM1.56,3.345C1.71,3.288 1.829,3.169 1.884,3.019C1.831,2.956 1.779,2.988 1.747,3.032C1.727,3.061 1.709,3.091 1.693,3.122C1.648,3.197 1.604,3.271 1.56,3.345ZM2.618,3.325L2.603,3.335C2.594,3.387 2.563,3.44 2.614,3.49C2.621,3.497 2.621,3.511 2.623,3.522C2.64,3.607 2.653,3.694 2.676,3.778C2.692,3.818 2.712,3.856 2.736,3.891C2.749,3.88 2.751,3.873 2.75,3.866C2.721,3.702 2.693,3.537 2.661,3.372C2.658,3.354 2.633,3.34 2.618,3.325ZM1.438,1.505L1.446,1.496C1.389,1.412 1.335,1.326 1.274,1.244C1.196,1.14 1.114,1.04 1.032,0.94C1.024,0.93 1.003,0.93 0.989,0.926C0.987,0.941 0.978,0.959 0.984,0.97C1.003,1.014 1.028,1.055 1.058,1.093C1.143,1.189 1.233,1.279 1.321,1.373C1.361,1.416 1.399,1.461 1.438,1.505ZM3.4,2.936L3.386,2.951C3.511,3.145 3.684,3.304 3.887,3.414L3.902,3.398L3.4,2.936ZM2.927,3.265L2.941,3.258C2.911,3.113 2.859,2.974 2.784,2.846L2.689,2.889L2.927,3.265ZM1.707,2.622C1.817,2.666 1.944,2.62 2.001,2.517C2.007,2.503 2.005,2.487 1.997,2.474C1.987,2.463 1.961,2.449 1.954,2.454C1.872,2.507 1.793,2.563 1.707,2.622ZM3.632,1.744L3.62,1.732L3.125,2.067C3.2,2.067 3.272,2.041 3.33,1.994C3.381,1.95 3.435,1.911 3.487,1.869C3.536,1.828 3.584,1.785 3.632,1.744ZM2.918,2.103L3.178,1.724C3.111,1.773 3.046,1.827 2.985,1.883C2.913,1.931 2.885,2.024 2.918,2.103L2.918,2.103ZM0.742,2.605L0.746,2.624L1.184,2.624C1.129,2.572 1.087,2.527 1.014,2.551C0.989,2.557 0.963,2.561 0.937,2.564C0.872,2.577 0.807,2.591 0.742,2.605L0.742,2.605ZM1.495,1.009L1.475,1.023C1.597,1.202 1.734,1.37 1.885,1.525L1.902,1.511L1.495,1.009ZM3.683,2.712C3.555,2.595 3.456,2.575 3.34,2.642C3.45,2.683 3.566,2.706 3.683,2.712L3.683,2.712ZM1.775,2.4L1.77,2.381C1.623,2.344 1.467,2.372 1.342,2.456L1.775,2.4ZM2.395,1.499C2.331,1.507 2.3,1.527 2.32,1.588C2.33,1.618 2.326,1.652 2.336,1.682C2.348,1.723 2.367,1.763 2.384,1.804L2.395,1.798L2.395,1.499ZM1.648,2.064L1.656,2.056C1.631,2.023 1.606,1.989 1.58,1.956C1.561,1.925 1.528,1.906 1.492,1.906C1.455,1.906 1.421,1.926 1.402,1.957L1.648,2.064ZM2.119,2.677C1.98,2.652 1.929,2.683 1.889,2.822C1.969,2.77 2.073,2.775 2.119,2.677L2.119,2.677ZM2.061,2.946C2.144,2.986 2.144,2.987 2.185,2.919C2.205,2.888 2.223,2.855 2.239,2.821C2.244,2.809 2.236,2.79 2.234,2.774C2.221,2.778 2.203,2.777 2.196,2.785C2.151,2.836 2.108,2.889 2.061,2.946L2.061,2.946ZM3.177,3.011L3.187,3.001C3.123,2.93 3.061,2.859 2.995,2.792C2.986,2.782 2.957,2.792 2.937,2.793C2.94,2.811 2.935,2.838 2.946,2.846C3.021,2.903 3.1,2.956 3.177,3.011L3.177,3.011ZM2.727,1.778L2.745,1.783C2.842,1.721 2.87,1.59 2.808,1.493L2.727,1.778ZM1.982,2.061C2.074,2.202 2.193,2.244 2.238,2.155L1.982,2.061ZM2.271,2.827L2.183,2.998C2.194,3.012 2.211,3.02 2.229,3.02C2.249,3.02 2.268,3.01 2.279,2.993C2.3,2.972 2.311,2.944 2.311,2.914C2.311,2.88 2.296,2.848 2.271,2.827L2.271,2.827ZM3.106,1.673L3.097,1.664L2.95,1.763C2.894,1.801 2.885,1.835 2.915,1.903L3.106,1.673ZM3.185,3.59L3.175,3.603L3.545,3.851C3.447,3.737 3.324,3.648 3.185,3.59L3.185,3.59ZM1.628,3.397C1.515,3.422 1.435,3.525 1.438,3.64L1.628,3.397ZM2.717,2.103C2.813,2.07 2.869,1.969 2.847,1.87L2.717,2.103ZM2.336,2.022C2.363,1.945 2.321,1.859 2.244,1.833C2.24,1.907 2.275,1.979 2.336,2.022L2.336,2.022ZM3.038,3.67L3.05,3.661C3.026,3.563 2.949,3.486 2.85,3.464L3.038,3.67ZM1.823,2.668C1.743,2.661 1.662,2.67 1.585,2.694C1.652,2.748 1.724,2.74 1.823,2.668ZM1.857,3.178L1.868,3.191L2.049,3.101L2.047,3.086C2.022,3.079 1.986,3.057 1.973,3.067C1.932,3.1 1.893,3.138 1.857,3.178L1.857,3.178ZM2.628,3.183L2.575,2.956C2.516,3.062 2.527,3.108 2.628,3.183L2.628,3.183ZM3.022,2.274C3.07,2.313 3.225,2.281 3.29,2.215L3.022,2.274ZM0.976,1.92L0.972,1.933C1.015,1.96 1.06,1.986 1.103,2.013C1.141,2.037 1.17,2.024 1.202,1.992L0.976,1.92ZM2.199,1.883C2.216,1.777 2.148,1.753 2.096,1.717L2.08,1.729L2.199,1.883ZM2.337,2.841C2.353,2.788 2.393,2.749 2.369,2.691C2.293,2.756 2.284,2.792 2.337,2.841L2.337,2.841ZM1.033,2.395L1.026,2.414L1.125,2.463L1.157,2.395L1.033,2.395ZM2.203,1.608L2.19,1.613C2.207,1.682 2.198,1.763 2.296,1.8L2.203,1.608ZM1.504,3.023L1.291,3.117L1.297,3.13C1.37,3.104 1.457,3.109 1.504,3.023ZM2.945,2.17C2.965,2.181 2.987,2.187 3.009,2.187C3.057,2.187 3.102,2.16 3.125,2.118L2.945,2.17ZM2.72,2.053L2.812,1.873C2.753,1.891 2.712,1.946 2.712,2.008C2.712,2.023 2.715,2.038 2.72,2.053L2.72,2.053ZM3.059,2.68L3.065,2.663C3.028,2.608 2.957,2.588 2.896,2.615L3.059,2.68ZM2.006,3.026C2.083,3.081 2.092,3.081 2.113,3.027C2.04,2.973 2.04,2.973 2.006,3.026L2.006,3.026ZM2.613,2.745C2.648,2.857 2.674,2.859 2.731,2.809L2.613,2.745ZM2.515,2.78L2.478,2.913C2.56,2.888 2.564,2.872 2.515,2.781L2.515,2.78ZM2.157,1.899L2.231,2.069C2.248,2.003 2.217,1.932 2.157,1.899L2.157,1.899ZM2.864,2.063L2.843,2.056L2.77,2.153C2.806,2.153 2.839,2.159 2.843,2.151C2.853,2.123 2.86,2.093 2.864,2.063L2.864,2.063ZM1.609,2.793L1.607,2.819C1.642,2.825 1.673,2.891 1.716,2.808L1.609,2.793ZM1.734,2.96L1.725,2.944C1.664,2.941 1.609,2.98 1.591,3.038L1.734,2.96ZM3.411,2.72C3.347,2.691 3.285,2.644 3.197,2.688L3.411,2.72ZM2.861,2.551L2.877,2.535C2.869,2.52 2.865,2.496 2.854,2.491C2.829,2.484 2.803,2.479 2.777,2.478L2.769,2.503L2.861,2.551ZM2.243,2.498C2.182,2.437 2.147,2.431 2.123,2.476C2.162,2.486 2.194,2.529 2.244,2.498L2.243,2.498ZM2.527,2.349L2.548,2.335C2.536,2.316 2.529,2.289 2.511,2.279C2.501,2.273 2.461,2.291 2.46,2.302C2.453,2.357 2.504,2.332 2.527,2.349L2.527,2.349ZM2.687,2.094L2.687,1.972L2.673,1.967C2.66,1.995 2.649,2.025 2.641,2.055C2.639,2.062 2.664,2.075 2.687,2.094L2.687,2.094ZM1.727,2.181L1.735,2.167L1.49,2.055L1.486,2.065L1.727,2.181ZM2.161,1.688L2.173,1.685L2.152,1.597L2.092,1.629L2.161,1.688ZM1.467,2.815L1.462,2.797C1.407,2.785 1.373,2.829 1.334,2.86L1.467,2.815ZM2.227,2.635L2.334,2.611C2.252,2.565 2.251,2.565 2.227,2.635L2.227,2.635ZM3.588,2.742L3.582,2.759L3.73,2.82L3.738,2.801L3.588,2.742ZM2.891,2.997L2.905,2.991C2.897,2.951 2.906,2.904 2.837,2.877L2.891,2.997ZM2.972,1.562C2.91,1.608 2.891,1.645 2.902,1.696L2.972,1.562ZM1.319,2.631L1.33,2.611L1.195,2.539L1.186,2.555L1.319,2.631ZM2.637,2.091L2.617,2.097L2.643,2.175C2.688,2.118 2.688,2.118 2.637,2.091L2.637,2.091ZM1.588,2.778L1.591,2.76C1.566,2.739 1.542,2.71 1.494,2.761L1.588,2.778ZM3.824,3.635C3.823,3.679 3.821,3.724 3.891,3.726L3.824,3.635Z" style="fill:white;fill-rule:nonzero;"/>
    </g>
</svg>
